<svg width="22" height="24" viewBox="0 0 22 24" fill="none" xmlns="http://www.w3.org/2000/svg">
<path d="M11.0007 6.67206e-08C8.57463 -0.000274833 6.225 0.848933 4.35966 2.40023C2.49431 3.95153 1.23102 6.10699 0.789032 8.49251C0.347044 10.878 0.754265 13.343 1.94002 15.4596C3.12577 17.5762 5.0152 19.2108 7.28037 20.0798V23.0117C7.27472 23.2594 7.36436 23.4999 7.53081 23.6835C7.69725 23.8671 7.92781 23.9799 8.17493 23.9985C8.19199 23.9985 8.20924 24 8.22631 24C8.46836 24.0007 8.70127 23.9076 8.87618 23.7403C8.96903 23.6518 9.043 23.5455 9.09362 23.4276C9.14425 23.3098 9.17048 23.1829 9.17074 23.0546V20.6027C10.6824 20.8761 12.236 20.8091 13.7186 20.4066V23.1272C13.7169 23.2429 13.7382 23.3577 13.7813 23.4651C13.8244 23.5725 13.8884 23.6702 13.9696 23.7526C14.0508 23.835 14.1476 23.9005 14.2543 23.9451C14.361 23.9898 14.4756 24.0128 14.5913 24.0128C14.707 24.0128 14.8215 23.9898 14.9282 23.9451C15.035 23.9005 15.1317 23.835 15.213 23.7526C15.2942 23.6702 15.3582 23.5725 15.4013 23.4651C15.4444 23.3577 15.4657 23.2429 15.464 23.1272V19.7599C17.5917 18.7471 19.3117 17.0407 20.3413 14.9211C21.3709 12.8015 21.649 10.3947 21.1298 8.09611C20.6106 5.79755 19.3251 3.74393 17.4843 2.27265C15.6436 0.801374 13.3572 -6.72197e-05 11.0007 6.67206e-08ZM15.1874 4.73569C15.1025 4.68891 15.0065 4.66583 14.9095 4.66887C14.8126 4.6719 14.7182 4.70094 14.6364 4.75294C13.0554 5.75213 12.7239 9.07256 12.6676 10.9629C12.6038 12.9579 12.9615 14.9439 13.7176 16.7912V17.7261C12.2624 18.2668 10.6788 18.3605 9.16999 17.9949V13.6956L10.5575 10.5352C10.5679 10.5116 10.5733 10.4861 10.5732 10.4602V5.26875C10.5732 5.10945 10.51 4.95667 10.3973 4.84402C10.2847 4.73138 10.1319 4.66809 9.97259 4.66809C9.81328 4.66809 9.6605 4.73138 9.54786 4.84402C9.43521 4.95667 9.37193 5.10945 9.37193 5.26875V8.99625H8.82612V5.26875C8.82612 5.10945 8.76283 4.95667 8.65019 4.84402C8.53754 4.73138 8.38477 4.66809 8.22546 4.66809C8.06616 4.66809 7.91338 4.73138 7.80073 4.84402C7.68809 4.95667 7.6248 5.10945 7.6248 5.26875V8.99625H7.07805V5.26875C7.07805 5.10945 7.01477 4.95667 6.90213 4.84402C6.78948 4.73138 6.6367 4.66809 6.4774 4.66809C6.31809 4.66809 6.16532 4.73138 6.05267 4.84402C5.94003 4.95667 5.87674 5.10945 5.87674 5.26875V10.4599C5.87671 10.4857 5.88208 10.5112 5.89249 10.5349L7.27999 13.6952V17.2687C5.77986 16.4585 4.58525 15.1807 3.87773 13.6295C3.1702 12.0782 2.98845 10.3384 3.36009 8.67449C3.73173 7.01053 4.63645 5.51339 5.93673 4.41061C7.23702 3.30782 8.86178 2.65969 10.5641 2.56472C12.2664 2.46975 13.9532 2.93312 15.3681 3.88442C16.783 4.83572 17.8486 6.22294 18.403 7.83523C18.9574 9.44752 18.9703 11.1967 18.4398 12.817C17.9092 14.4373 16.8641 15.8401 15.4634 16.8122V5.20388C15.4643 5.10813 15.439 5.01397 15.3904 4.9315C15.3418 4.84902 15.2716 4.78133 15.1874 4.73569ZM8.79574 23.0544C8.79594 23.132 8.78028 23.2089 8.74973 23.2802C8.71918 23.3516 8.67438 23.4159 8.61808 23.4693C8.56178 23.5228 8.49517 23.5641 8.42232 23.5909C8.34947 23.6177 8.27192 23.6293 8.19443 23.625C8.04393 23.6097 7.90476 23.5381 7.8048 23.4245C7.70484 23.311 7.65147 23.1639 7.65537 23.0126V13.6564C7.65538 13.6306 7.65002 13.605 7.63962 13.5814L6.25212 10.4211V5.26875C6.25212 5.2089 6.27589 5.15151 6.31821 5.10919C6.36053 5.06687 6.41793 5.04309 6.47777 5.04309C6.53762 5.04309 6.59502 5.06687 6.63734 5.10919C6.67966 5.15151 6.70343 5.2089 6.70343 5.26875V9.18375C6.70343 9.23348 6.72318 9.28117 6.75835 9.31633C6.79351 9.3515 6.8412 9.37125 6.89093 9.37125H7.8123C7.86203 9.37125 7.90972 9.3515 7.94489 9.31633C7.98005 9.28117 7.9998 9.23348 7.9998 9.18375V5.26875C7.9998 5.20893 8.02357 5.15155 8.06587 5.10925C8.10817 5.06695 8.16554 5.04319 8.22537 5.04319C8.28519 5.04319 8.34256 5.06695 8.38486 5.10925C8.42717 5.15155 8.45093 5.20893 8.45093 5.26875V9.18375C8.45093 9.23348 8.47068 9.28117 8.50585 9.31633C8.54101 9.3515 8.5887 9.37125 8.63843 9.37125H9.56037C9.6101 9.37125 9.65779 9.3515 9.69295 9.31633C9.72811 9.28117 9.74787 9.23348 9.74787 9.18375V5.26875C9.74787 5.2089 9.77164 5.15151 9.81396 5.10919C9.85628 5.06687 9.91368 5.04309 9.97352 5.04309C10.0334 5.04309 10.0908 5.06687 10.1331 5.10919C10.1754 5.15151 10.1992 5.2089 10.1992 5.26875V10.4205L8.81168 13.5808C8.80128 13.6044 8.79592 13.63 8.79593 13.6558L8.79574 23.0544ZM9.17074 20.2209V18.3791C10.68 18.7284 12.2576 18.6402 13.7186 18.1249V20.0154C12.2381 20.4295 10.6826 20.4996 9.17074 20.2209ZM14.591 23.625C14.459 23.6249 14.3325 23.5723 14.2392 23.479C14.1459 23.3857 14.0935 23.2592 14.0934 23.1272V16.7507C14.0934 16.7234 14.0874 16.6965 14.0759 16.6717C13.3379 14.8654 12.9862 12.9246 13.0436 10.9742C13.136 7.884 13.7898 5.73206 14.8374 5.07C14.8625 5.05374 14.8916 5.04459 14.9215 5.04354C14.9514 5.04248 14.981 5.04955 15.0072 5.064C15.0324 5.07755 15.0535 5.09776 15.068 5.12242C15.0825 5.14709 15.0899 5.17526 15.0896 5.20388V19.6461C15.0895 19.6477 15.0895 19.6493 15.0896 19.6509V23.1272C15.0894 23.2593 15.0368 23.3859 14.9433 23.4793C14.8498 23.5726 14.7231 23.625 14.591 23.625ZM15.4638 19.3431V17.2648C16.9795 16.2819 18.1284 14.8262 18.7323 13.1236C19.3362 11.421 19.3612 9.56674 18.8035 7.84847C18.2458 6.13019 17.1366 4.64403 15.648 3.62058C14.1593 2.59714 12.3745 2.09364 10.5705 2.18821C8.76645 2.28278 7.04407 2.97014 5.6706 4.14363C4.29714 5.31711 3.34939 6.91111 2.97442 8.67827C2.59944 10.4454 2.81822 12.287 3.59679 13.9171C4.37536 15.5472 5.67019 16.8748 7.28037 17.6938V19.677C5.15328 18.8257 3.3826 17.2705 2.26398 15.271C1.14536 13.2715 0.746504 10.9488 1.13402 8.69071C1.52153 6.4326 2.67196 4.37577 4.3932 2.86364C6.11445 1.35152 8.30233 0.475621 10.5915 0.382207C12.8808 0.288792 15.1327 0.983512 16.9715 2.35037C18.8102 3.71723 20.1244 5.67349 20.6946 7.89251C21.2648 10.1115 21.0565 12.459 20.1045 14.543C19.1525 16.627 17.5145 18.3213 15.4638 19.3431Z" fill="black"/>
</svg>
